<?xml version="1.0" encoding="UTF-8" standalone="no"?>
<svg
   fill-rule="evenodd"
   stroke-linejoin="round"
   stroke-miterlimit="1.414"
   clip-rule="evenodd"
   viewBox="0 0 382.883 338.504"
   version="1.1"
   id="svg1"
   width="382.883"
   height="338.504"
   xmlns="http://www.w3.org/2000/svg"
   xmlns:svg="http://www.w3.org/2000/svg">
  <defs
     id="defs1" />
  <path
     fill="#fff"
     d="m 323.716,18.264998 h -16.84 C 274.392,-6.5300025 106.326,-5.6400025 76.616,18.256998 H 59.471 l -33.52,16.892 331.83,-0.051 z m 40.313,24.485 -345.269,0.062 -18.76,25.22 0.212,9.51 149.213,25.552002 -0.075,8.772 c 7.746,11.673 18.203,18.115 31.107,19.833 l -0.18,7.897 6.168,-0.077 2.248,165.503 -8.293,10.991 -0.01,15.321 9.791,7.162 3.147,0.008 9.352,-7.328 0.04,-15.204 -8.157,-11.04 1.334,-165.53 6.959,-0.087 -0.162,-7.822 c 21.061,-4.576 22.978,-10.405 31.203,-19.705 l -0.251,-8.765 149.233,-26.726002 0.004,-7.986 z"
     style="fill:#3273dc;fill-opacity:1"
     id="path1" />
</svg>
