<?xml version="1.0" encoding="UTF-8" standalone="no"?>
<svg
   width="286.83853"
   zoomAndPan="magnify"
   viewBox="0 0 215.1289 241.51574"
   height="322.021"
   preserveAspectRatio="xMidYMid"
   version="1.2"
   id="svg46"
   xmlns="http://www.w3.org/2000/svg"
   xmlns:svg="http://www.w3.org/2000/svg">
  <defs
     id="defs14">
    <clipPath
       id="500c82f8bd">
      <path
         d="M 79.699219,62.527344 H 83 V 254.52734 h -3.300781 z m 0,0"
         id="path1" />
    </clipPath>
    <clipPath
       id="0661d5ef53">
      <path
         d="M 79.699219,62.527344 H 294.94922 V 254 H 79.699219 Z m 0,0"
         id="path2" />
    </clipPath>
    <clipPath
       id="20a71dc459">
      <path
         d="m 136,140 h 91 v 83 h -91 z m 0,0"
         id="path3" />
    </clipPath>
    <clipPath
       id="d3e5eae6d5">
      <path
         d="m 118.53125,167.22266 77.79297,-60.00782 60.01172,77.79297 -77.79688,60.01172 z m 0,0"
         id="path4" />
    </clipPath>
    <clipPath
       id="f527790b46">
      <path
         d="m 118.53125,167.22266 77.79297,-60.00782 60.01172,77.79297 -77.79688,60.01172 z m 0,0"
         id="path5" />
    </clipPath>
    <clipPath
       id="245fd26ce6">
      <path
         d="m 200,148 h 19 v 8 h -19 z m 0,0"
         id="path6" />
    </clipPath>
    <clipPath
       id="3ab0ce2de2">
      <path
         d="m 118.53125,167.22266 77.79297,-60.00782 60.01172,77.79297 -77.79688,60.01172 z m 0,0"
         id="path7" />
    </clipPath>
    <clipPath
       id="db7a53c94f">
      <path
         d="m 118.53125,167.22266 77.79297,-60.00782 60.01172,77.79297 -77.79688,60.01172 z m 0,0"
         id="path8" />
    </clipPath>
    <clipPath
       id="384f10f13e">
      <path
         d="m 196,156 h 4 v 4 h -4 z m 0,0"
         id="path9" />
    </clipPath>
    <clipPath
       id="35a6000c93">
      <path
         d="m 118.53125,167.22266 77.79297,-60.00782 60.01172,77.79297 -77.79688,60.01172 z m 0,0"
         id="path10" />
    </clipPath>
    <clipPath
       id="05ca4b3984">
      <path
         d="m 118.53125,167.22266 77.79297,-60.00782 60.01172,77.79297 -77.79688,60.01172 z m 0,0"
         id="path11" />
    </clipPath>
    <clipPath
       id="fdc4798e93">
      <path
         d="m 107,204 h 38 v 34 h -38 z m 0,0"
         id="path12" />
    </clipPath>
    <clipPath
       id="bd243a4135">
      <path
         d="m 85.53125,201.30859 40.73828,-25.38672 38.07813,61.10938 -40.73828,25.38281 z m 0,0"
         id="path13" />
    </clipPath>
    <clipPath
       id="c7d83178e0">
      <path
         d="m 85.53125,201.30859 127.30859,-79.32812 38.07813,61.10937 -127.30859,79.32422 z m 0,0"
         id="path14" />
    </clipPath>
  </defs>
  <g
     id="7009e4dbe7"
     transform="translate(-79.765625,-62.527344)">
    <g
       clip-rule="nonzero"
       clip-path="url(#500c82f8bd)"
       id="g15">
      <path
         style="fill:#264653;fill-opacity:1;fill-rule:nonzero;stroke:none"
         d="m 79.765625,62.527344 h 2.382813 V 254.10937 h -2.382813 z m 0,0"
         id="path15" />
    </g>
    <g
       clip-rule="nonzero"
       clip-path="url(#0661d5ef53)"
       id="g16">
      <path
         style="fill:#264653;fill-opacity:1;fill-rule:nonzero;stroke:none"
         d="m 294.89453,253.79687 h -2.38281 v -1.19531 c 0,-3.20312 -0.16016,-6.60937 -0.46485,-10.11719 l -0.10156,-1.1914 2.375,-0.20313 0.10156,1.1875 c 0.3125,3.57813 0.47266,7.05469 0.47266,10.32422 z m -3.90234,-20.21093 -0.1875,-1.17578 c -0.51563,-3.27735 -1.14844,-6.63282 -1.89063,-9.98438 l -0.2539,-1.16406 2.32812,-0.51563 0.25781,1.16797 c 0.7461,3.39453 1.39453,6.80078 1.91407,10.125 l 0.1875,1.17969 z m -4.21485,-19.87891 -0.32031,-1.14844 c -0.90625,-3.24218 -1.90625,-6.51172 -2.98437,-9.72265 l -0.38282,-1.13282 2.26563,-0.75781 0.3789,1.12891 c 1.08594,3.2539 2.10547,6.5664 3.01954,9.84375 l 0.3164,1.14844 z M 280.4375,194.38672 280,193.27734 c -1.24219,-3.17187 -2.57031,-6.32422 -3.94141,-9.3789 l -0.48828,-1.08594 2.17578,-0.98047 0.48828,1.08984 c 1.39063,3.08594 2.73047,6.27735 3.98829,9.48438 l 0.43359,1.11328 z m -8.22656,-18.59766 -0.53907,-1.0625 c -1.53906,-3.02344 -3.16406,-6.03515 -4.83203,-8.94922 l -0.58984,-1.03125 2.07031,-1.1875 0.58985,1.03516 c 1.6875,2.94531 3.33203,5.99219 4.88671,9.05078 l 0.54297,1.0625 z m -9.98438,-17.70703 -0.64453,-1.00391 c -1.80859,-2.83593 -3.72266,-5.66796 -5.6875,-8.42578 l -0.69141,-0.97265 1.94141,-1.38282 0.69531,0.97266 c 1.98047,2.78516 3.91797,5.65625 5.75391,8.52344 l 0.64062,1.0039 z m -11.6914,-16.625 -0.73829,-0.9375 c -2.10546,-2.66406 -4.29687,-5.28906 -6.5,-7.80078 l -0.78906,-0.89844 1.79297,-1.57422 0.78516,0.89844 c 2.23437,2.54297 4.45312,5.19922 6.58203,7.89844 l 0.73828,0.9375 z m -13.3086,-15.34375 -0.83203,-0.85547 c -2.35937,-2.41797 -4.80469,-4.80078 -7.27734,-7.08203 l -0.875,-0.8125 1.61718,-1.75 0.875,0.8086 c 2.50391,2.3125 4.98438,4.72265 7.3711,7.17187 l 0.83203,0.85547 z M 222.39453,112.25 l -0.91797,-0.76172 c -2.57031,-2.13672 -5.2539,-4.24609 -7.98437,-6.27344 l -0.95313,-0.71093 1.42188,-1.91407 0.95703,0.71094 c 2.75781,2.05469 5.48047,4.19141 8.08203,6.35156 l 0.91797,0.76172 z m -16.21484,-12.21094 -0.99219,-0.660154 c -2.80859,-1.863281 -5.70703,-3.671875 -8.60547,-5.382812 l -1.03125,-0.605469 1.21094,-2.054687 1.03125,0.605468 c 2.93359,1.730469 5.86719,3.5625 8.71094,5.449219 L 207.5,98.050781 Z m -17.42188,-10.410154 -1.05859,-0.550781 c -2.98828,-1.558594 -6.0586,-3.058594 -9.1211,-4.449219 l -1.08203,-0.496094 0.98828,-2.167968 1.08594,0.492187 c 3.09375,1.410157 6.20313,2.925781 9.23438,4.503907 l 1.05468,0.550781 z m -18.41406,-8.539062 -1.10547,-0.4375 c -3.12109,-1.238282 -6.32812,-2.417969 -9.52734,-3.503906 l -1.13282,-0.386719 0.76954,-2.257813 1.1289,0.382813 c 3.23828,1.101562 6.48047,2.296875 9.64063,3.546875 l 1.10547,0.441406 z m -19.18359,-6.648438 -1.14454,-0.332031 c -3.22265,-0.925781 -6.53125,-1.792969 -9.82421,-2.578125 l -1.16407,-0.277344 0.55469,-2.316406 1.16016,0.273438 c 3.33203,0.792968 6.67187,1.671874 9.92968,2.605468 l 1.14844,0.332032 z M 131.42969,69.625 130.25781,69.402344 c -3.29687,-0.632813 -6.66797,-1.199219 -10.01953,-1.695313 l -1.17969,-0.175781 0.34766,-2.359375 1.17969,0.175781 c 3.38281,0.5 6.78906,1.074219 10.11718,1.710938 l 1.17188,0.226562 z m -20.08985,-3.074219 -1.18359,-0.125 c -3.32031,-0.355469 -6.69922,-0.648437 -10.13281,-0.878906 l -1.191409,-0.08203 0.164063,-2.378906 1.187496,0.07812 c 3.44532,0.234376 6.88672,0.53125 10.22657,0.886719 l 1.18359,0.128907 z m -20.285152,-1.464843 -1.195313,-0.03516 c -2.925781,-0.08984 -5.898437,-0.136719 -8.902344,-0.136719 h -1.191406 v -2.386718 h 1.191406 c 3.03125,0 6.023438,0.04687 8.976563,0.140625 l 1.191406,0.03125 z m 0,0"
         id="path16" />
    </g>
    <g
       clip-rule="nonzero"
       clip-path="url(#20a71dc459)"
       id="g19">
      <g
         clip-rule="nonzero"
         clip-path="url(#d3e5eae6d5)"
         id="g18">
        <g
           clip-rule="nonzero"
           clip-path="url(#f527790b46)"
           id="g17">
          <path
             style="fill:#ff6d4d;fill-opacity:1;fill-rule:nonzero;stroke:none"
             d="m 197.82812,148.89844 c -2.3125,1.73047 -4.55859,3.5664 -6.77734,5.44531 -8.1875,-3.90234 -16.46484,-7.60547 -24.86328,-11.03516 -3.96484,-1.62109 -9.61719,-5.24218 -13.62109,-1.63672 -3.27735,2.94922 -1.39844,5.05079 0.91406,7.91797 0.27734,0.34766 0.5664,0.6836 0.84765,1.02735 -0.90234,0.73437 -1.76562,1.65625 -1.92578,2.72656 -0.21484,1.47266 0.90235,3.17187 1.75,4.28125 0.80078,1.05469 2.03516,2.47656 3.41016,2.69922 1.29687,0.20703 2.53516,-0.8125 3.51953,-1.65235 1.02734,1.19141 2.04688,2.38672 3.07813,3.57422 -0.84766,0.96094 -1.90625,2.05078 -2.12891,3.23047 -0.26563,1.41797 0.99219,2.36719 1.88672,3.24219 0.90234,0.88672 1.96094,2.25 3.28515,2.47656 1.5625,0.26953 2.19141,-0.92969 3.31641,-1.59765 0.65625,0.76171 1.31641,1.52343 1.96875,2.28515 0.0117,0.0117 0.0234,0.0156 0.0352,0.0273 C 167.22266,177.32031 162,182.78125 156.70312,188 c -4.95703,-2.78125 -15.97265,-7.16016 -19.62109,-1.34766 -1.28125,2.04297 -0.10937,3.80469 1.38281,5.41016 4.10547,4.41016 9.32032,6.90625 13.00391,12.02344 2.16797,3.0039 3.91406,6.23437 5.23437,9.6914 0.84766,2.20703 1.37891,4.71875 3.04297,6.48828 1.46485,1.55079 3.75782,2.64454 5.85157,1.69922 6.76562,-3.05859 2.99609,-14.41797 0.67578,-20.0039 7.35156,-2.79297 14.77343,-5.96875 21.91015,-9.67578 0.58985,0.84375 1.17969,1.6914 1.76563,2.53515 -0.88672,0.76172 -1.84375,1.57813 -2.33985,2.50781 -0.78515,1.45704 0.48438,2.91016 1.33204,4.01563 0.875,1.14453 1.87109,2.44141 3.42578,2.53125 1.23047,0.0664 2.03906,-0.71484 2.85937,-1.47656 1.26172,1.8164 2.52735,3.63281 3.78906,5.44922 -0.9375,0.73828 -2.01953,1.68359 -2.09375,2.85546 -0.0742,1.23829 1.0625,2.6836 1.77344,3.6211 0.71485,0.9414 1.82813,2.1914 3.0625,2.36719 1.03125,0.14843 1.9375,-0.35547 2.70703,-1 1.96485,2.89062 3.83594,5.53906 7.52735,3.01562 4.16406,-2.84766 2.57812,-8.14453 2.04297,-12.30078 -1.21094,-9.37109 -2.73829,-18.6875 -4.5,-27.96875 0.3789,-0.3125 0.76562,-0.62109 1.14062,-0.9375 7.57031,-6.42969 21.17188,-19.57422 14.45703,-30.77344 -5.82812,-9.71094 -20.67187,-2.79297 -27.30469,2.17188 z m -39.72656,8.48828 c -0.46094,0.0273 -1.33203,-1.0586 -1.67578,-1.51563 -0.32812,-0.42968 -1.15234,-1.42968 -1.11719,-2.01172 0.0234,-0.35156 0.39844,-0.73046 0.82032,-1.0625 1.03125,1.24219 2.0625,2.48438 3.10937,3.71485 -0.40234,0.38672 -0.90625,0.85937 -1.13672,0.875 z m 9.875,10.66406 c -0.10937,0.0625 -0.20703,0.13672 -0.30078,0.21875 -0.004,-0.043 -0.0508,-0.10547 -0.25,-0.16406 -0.33594,-0.10547 -0.75,-0.69141 -1,-0.92578 -0.36328,-0.34375 -0.70703,-0.73438 -1.08594,-1.0625 -0.0977,-0.0977 -0.19531,-0.19922 -0.29297,-0.29688 0.043,-0.043 0.0742,-0.0937 0.0977,-0.14844 0.20703,-0.41406 0.55078,-0.83593 0.90625,-1.24609 0.88672,1.01953 1.76563,2.03906 2.64844,3.05859 -0.22656,0.20704 -0.46485,0.39454 -0.72266,0.56641 z m -4.44922,-11.09375 c -2.01562,-2.36328 -4.03125,-4.73047 -6.04687,-7.09375 -1.96875,-2.30859 -7.73438,-6.71094 1.59765,-6.30859 4.40235,0.1875 10.42188,4.21093 14.42188,5.9375 5.10547,2.20703 10.15625,4.52734 15.17969,6.91015 -4.86328,4.27735 -9.55078,8.82032 -14.14063,13.46485 -3.67187,-4.30469 -7.33984,-8.60547 -11.01172,-12.91016 z m 29.08203,43.96484 c -0.50781,0.12891 -1.23828,-1.11718 -1.55078,-1.53125 -0.23047,-0.3125 -0.43359,-0.65234 -0.67187,-0.96093 l 0.30469,-0.29297 c 0.36328,-0.23828 0.6914,-0.51953 0.98046,-0.84375 0.64454,0.92578 1.29297,1.85547 1.9375,2.78125 -0.32421,0.36719 -0.68359,0.76953 -1,0.84765 z m 9.22266,12.57422 c -0.49609,-0.35937 -0.89453,-0.94531 -1.21875,-1.45312 -0.15234,-0.24219 -0.29297,-0.49219 -0.44531,-0.73438 -0.0547,-0.0859 -0.14844,-0.29687 -0.23047,-0.41406 0.15625,-0.13281 0.30469,-0.27734 0.44531,-0.42969 0.0898,-0.0859 0.19141,-0.16015 0.28906,-0.24218 0.72266,1.03906 1.44532,2.07812 2.17188,3.12109 -0.38281,0.37891 -0.5625,0.48437 -1.01172,0.15234 z m 9.01563,-9.30078 c 0.29296,2.16406 1.52343,5.73828 0.97656,7.73828 -2.34375,8.57032 -4.63281,2.64063 -6.51172,-0.0586 -1.51953,-2.1875 -3.04297,-4.37109 -4.5625,-6.55859 -3.33984,-4.79688 -6.67578,-9.59375 -10.01563,-14.39063 5.70313,-3.09766 11.1836,-6.5625 16.25782,-10.46484 0.91797,4.89843 1.78515,9.80468 2.54687,14.73047 0.46485,2.99609 0.90235,5.99609 1.3086,9.0039 z m 12.45312,-54.73437 c 5.26172,12.33984 -15.02734,27.02343 -23.13672,32.4414 -11.1289,7.4375 -23.84375,13.24219 -36.33984,17.91797 -0.71094,0.26563 -1.08985,1.17969 -0.78516,1.8711 1.08985,2.46875 2.27344,4.88671 2.83203,7.55078 0.41016,1.95312 1.78516,12.21093 -5.07812,7.36718 -1.39453,-0.98437 -2.28906,-6.29296 -3.10156,-7.92578 -1.08985,-2.20312 -2.51954,-4.37109 -3.94922,-6.35156 -3.11719,-4.30859 -7.23828,-6.58594 -10.72657,-10.28516 -3.03906,-3.23046 -3.69531,-4.8164 1.38672,-5 4.25782,-0.15625 8.15625,1.6836 11.66407,3.89063 0.043,0.0234 0.082,0.0234 0.125,0.0469 0.44531,0.37891 1.0625,0.48047 1.61328,-0.0586 9.64843,-9.45312 19.08593,-19.12891 28.94922,-28.35937 4.65625,-4.35547 9.25781,-9.08594 14.57421,-12.64844 5.30079,-3.5586 18.13282,-9.46875 21.97266,-0.45703 z m 0,0"
             id="path17" />
        </g>
      </g>
    </g>
    <g
       clip-rule="nonzero"
       clip-path="url(#245fd26ce6)"
       id="g22">
      <g
         clip-rule="nonzero"
         clip-path="url(#3ab0ce2de2)"
         id="g21">
        <g
           clip-rule="nonzero"
           clip-path="url(#db7a53c94f)"
           id="g20">
          <path
             style="fill:#ff6d4d;fill-opacity:1;fill-rule:nonzero;stroke:none"
             d="m 201.53125,152.59375 c -1.46875,1.12109 0.28125,3.39453 1.75,2.27344 3.78906,-2.89063 8.39844,-4.91797 12.96875,-2.5 1.62891,0.86328 2.69922,-1.80078 1.07812,-2.66016 -5.42578,-2.87109 -11.26953,-0.56641 -15.79687,2.88672 z m 0,0"
             id="path19" />
        </g>
      </g>
    </g>
    <g
       clip-rule="nonzero"
       clip-path="url(#384f10f13e)"
       id="g25">
      <g
         clip-rule="nonzero"
         clip-path="url(#35a6000c93)"
         id="g24">
        <g
           clip-rule="nonzero"
           clip-path="url(#05ca4b3984)"
           id="g23">
          <path
             style="fill:#ff6d4d;fill-opacity:1;fill-rule:nonzero;stroke:none"
             d="m 196.64844,158.46875 0.0742,0.0977 c 1.1289,1.46093 3.40234,-0.28907 2.27343,-1.75391 l -0.0742,-0.0977 c -1.1289,-1.46484 -3.40234,0.28907 -2.27343,1.75391 z m 0,0"
             id="path22" />
        </g>
      </g>
    </g>
    <g
       clip-rule="nonzero"
       clip-path="url(#fdc4798e93)"
       id="g28">
      <g
         clip-rule="nonzero"
         clip-path="url(#bd243a4135)"
         id="g27">
        <g
           clip-rule="nonzero"
           clip-path="url(#c7d83178e0)"
           id="g26">
          <path
             style="fill:#ff6d4d;fill-opacity:1;fill-rule:nonzero;stroke:none"
             d="m 129.60156,214.16406 c -0.57422,0.35938 -1.29687,1.08594 -1.52734,1.96485 -0.17578,0.67578 -0.0195,1.30078 0.47656,1.91796 0.93359,1.14844 2.72656,1.55469 4.83594,1.3125 0.58203,-1.76953 0.69531,-3.46093 0.0977,-4.51171 -0.83984,-1.46485 -2.6875,-1.19922 -3.54687,-0.85547 -0.10156,0.0391 -0.21484,0.0977 -0.33594,0.17187 z m -14.33593,7.71094 c -0.0781,0.0469 -0.15235,0.0977 -0.22266,0.15234 -0.34375,0.26563 -0.53906,0.63282 -0.57422,1.08985 -0.0586,0.75 0.31641,1.61328 1.03516,2.36718 0.64062,0.67579 2.93359,1.46875 5.625,1.70313 0.19531,-1.70703 -0.10157,-3.27344 -0.6875,-4.08984 -0.65625,-0.91407 -1.63282,-1.50391 -2.75391,-1.66797 -0.89062,-0.13282 -1.75781,0.0312 -2.42187,0.44531 z m 3.07031,13.12891 c -4.14453,2.58593 -8.41016,2.12109 -10.13281,1.77343 -0.52735,-0.10156 -0.86719,-0.61718 -0.76172,-1.14062 0.10547,-0.52735 0.61718,-0.86719 1.14453,-0.76172 1.59375,0.31641 5.70312,0.75391 9.48828,-2.03906 1.31641,-0.97266 2.16016,-2.32422 2.63281,-3.72657 -3,-0.28906 -5.60547,-1.22265 -6.61328,-2.28515 -1.09766,-1.15235 -1.66797,-2.5586 -1.5625,-3.85938 0.0781,-1.0039 0.55078,-1.88281 1.32813,-2.47656 1.10546,-0.84766 2.60156,-1.20703 4.10937,-0.98437 1.64844,0.24218 3.08203,1.11328 4.05078,2.45703 0.85938,1.19922 1.26953,3.17578 1.0586,5.28906 2,-0.0469 4.05468,-0.46094 5.69921,-1.48828 1.48828,-0.92578 2.82813,-2.59766 3.76172,-4.40625 -2.32422,0.0508 -4.32031,-0.62891 -5.5,-2.08594 -0.88672,-1.09766 -1.17968,-2.35547 -0.84375,-3.63281 0.42969,-1.64453 1.84375,-2.98047 3.01953,-3.45313 1.95703,-0.77734 4.65235,-0.58203 5.95703,1.70313 0.76563,1.34375 0.8086,3.14844 0.35547,5.02734 1.95703,-0.57031 4.01172,-1.60937 5.80469,-3.05469 1.19531,-0.96484 1.79688,-2.53515 1.64453,-4.3125 -0.17969,-2.08593 -1.33594,-4.01562 -2.94531,-4.91015 -0.47266,-0.26172 -0.64063,-0.85156 -0.37891,-1.32031 0.26172,-0.46875 0.85157,-0.63672 1.32032,-0.37891 2.16015,1.19922 3.70703,3.73047 3.9375,6.44531 0.21093,2.42578 -0.64844,4.60938 -2.35938,5.98828 -2.42187,1.95703 -5.18359,3.21875 -7.75,3.73047 -1.10156,2.60156 -2.97656,5.05078 -4.99609,6.3086 -2.03125,1.26562 -4.60156,1.77343 -7.09375,1.78906 -0.55469,1.96094 -1.67188,3.86328 -3.48438,5.19922 -0.29687,0.21875 -0.59375,0.42187 -0.89062,0.60547"
             id="path25" />
        </g>
      </g>
    </g>
    <g
       style="fill:#264653;fill-opacity:1"
       id="g30">
      <g
         transform="translate(92.197618,303.54309)"
         id="g29">
        <path
           style="stroke:none"
           d="M 9.34375,-12.71875 H 20.109375 V 0 H 15.8125 V -2.796875 H 15.15625 C 14.875,-1.867188 14.320312,-1.085938 13.5,-0.453125 12.6875,0.179688 11.46875,0.5 9.84375,0.5 8.695312,0.5 7.617188,0.285156 6.609375,-0.140625 5.597656,-0.578125 4.722656,-1.21875 3.984375,-2.0625 3.242188,-2.914062 2.65625,-3.96875 2.21875,-5.21875 1.789062,-6.476562 1.578125,-7.945312 1.578125,-9.625 v -5.890625 c 0,-1.625 0.234375,-3.066406 0.703125,-4.328125 0.46875,-1.257812 1.113281,-2.316406 1.9375,-3.171875 0.820312,-0.863281 1.804688,-1.515625 2.953125,-1.953125 1.15625,-0.445312 2.425781,-0.671875 3.8125,-0.671875 1.4375,0 2.71875,0.234375 3.84375,0.703125 1.132813,0.460938 2.09375,1.105469 2.875,1.9375 0.789063,0.824219 1.390625,1.792969 1.796875,2.90625 0.40625,1.117188 0.609375,2.304688 0.609375,3.5625 v 0.4375 H 15.375 v -0.4375 c 0,-1.5 -0.390625,-2.640625 -1.171875,-3.421875 -0.773437,-0.78125 -1.867187,-1.171875 -3.28125,-1.171875 -1.34375,0 -2.449219,0.453125 -3.3125,1.359375 -0.855469,0.898437 -1.28125,2.433594 -1.28125,4.609375 v 5.3125 c 0,3.886719 1.578125,5.828125 4.734375,5.828125 1.414062,0 2.488281,-0.375 3.21875,-1.125 C 15.007812,-5.898438 15.375,-6.914062 15.375,-8.1875 H 9.34375 Z m 0,0"
           id="path28" />
      </g>
    </g>
    <g
       style="fill:#264653;fill-opacity:1"
       id="g32">
      <g
         transform="translate(113.27414,303.54309)"
         id="g31">
        <path
           style="stroke:none"
           d="M 14.328125,-2.59375 C 13.847656,-1.457031 13.175781,-0.65625 12.3125,-0.1875 11.457031,0.269531 10.453125,0.5 9.296875,0.5 8.222656,0.5 7.210938,0.296875 6.265625,-0.109375 5.316406,-0.515625 4.484375,-1.113281 3.765625,-1.90625 3.046875,-2.695312 2.476562,-3.65625 2.0625,-4.78125 1.644531,-5.90625 1.4375,-7.1875 1.4375,-8.625 V -9.203125 C 1.4375,-10.609375 1.640625,-11.875 2.046875,-13 2.453125,-14.125 3,-15.082031 3.6875,-15.875 c 0.695312,-0.789062 1.503906,-1.394531 2.421875,-1.8125 0.925781,-0.414062 1.921875,-0.625 2.984375,-0.625 1.257812,0 2.28125,0.214844 3.0625,0.640625 0.78125,0.429687 1.398438,1.101563 1.859375,2.015625 h 0.640625 v -2.15625 h 4.53125 v 12.421875 c 0,0.71875 0.320312,1.078125 0.96875,1.078125 h 0.671875 V 0 H 17.75 c -0.8125,0 -1.480469,-0.238281 -2,-0.71875 -0.511719,-0.476562 -0.765625,-1.101562 -0.765625,-1.875 z M 10.3125,-3.8125 c 1.3125,0 2.363281,-0.4375 3.15625,-1.3125 0.789062,-0.875 1.1875,-2.0625 1.1875,-3.5625 V -9.125 c 0,-1.507812 -0.398438,-2.703125 -1.1875,-3.578125 -0.792969,-0.875 -1.84375,-1.3125 -3.15625,-1.3125 -1.324219,0 -2.382812,0.4375 -3.171875,1.3125 -0.78125,0.875 -1.171875,2.070313 -1.171875,3.578125 v 0.4375 c 0,1.5 0.390625,2.6875 1.171875,3.5625 0.789063,0.875 1.847656,1.3125 3.171875,1.3125 z m 0,0"
           id="path30" />
      </g>
    </g>
    <g
       style="fill:#264653;fill-opacity:1"
       id="g34">
      <g
         transform="translate(134.35067,303.54309)"
         id="g33">
        <path
           style="stroke:none"
           d="m 2.296875,-17.8125 h 5.28125 v -7.328125 h 4.53125 V -17.8125 H 18.53125 V -13.5 h -6.421875 v 8.109375 c 0,0.71875 0.320313,1.078125 0.96875,1.078125 h 4.8125 V 0 H 10.34375 c -0.8125,0 -1.480469,-0.257812 -2,-0.78125 C 7.832031,-1.3125 7.578125,-1.984375 7.578125,-2.796875 V -13.5 h -5.28125 z m 0,0"
           id="path32" />
      </g>
    </g>
    <g
       style="fill:#264653;fill-opacity:1"
       id="g36">
      <g
         transform="translate(155.42719,303.54309)"
         id="g35">
        <path
           style="stroke:none"
           d="m 6.796875,-7.4375 c 0.019531,0.53125 0.140625,1.023438 0.359375,1.46875 0.226562,0.4375 0.539062,0.820312 0.9375,1.140625 0.394531,0.324219 0.847656,0.574219 1.359375,0.75 0.519531,0.179687 1.066406,0.265625 1.640625,0.265625 1.125,0 1.984375,-0.195312 2.578125,-0.59375 0.601563,-0.394531 1.039063,-0.863281 1.3125,-1.40625 l 3.875,2.15625 c -0.21875,0.449219 -0.523437,0.917969 -0.90625,1.40625 -0.375,0.492188 -0.871094,0.945312 -1.484375,1.359375 -0.617188,0.40625 -1.359375,0.742187 -2.234375,1 C 13.367188,0.367188 12.347656,0.5 11.171875,0.5 9.828125,0.5 8.601562,0.285156 7.5,-0.140625 c -1.09375,-0.4375 -2.042969,-1.0625 -2.84375,-1.875 -0.804688,-0.8125 -1.429688,-1.800781 -1.875,-2.96875 -0.4375,-1.175781 -0.65625,-2.507813 -0.65625,-4 v -0.21875 c 0,-1.363281 0.226562,-2.609375 0.6875,-3.734375 0.46875,-1.125 1.109375,-2.078125 1.921875,-2.859375 0.820313,-0.789063 1.773437,-1.40625 2.859375,-1.84375 1.09375,-0.445313 2.257812,-0.671875 3.5,-0.671875 1.539062,0 2.859375,0.273438 3.953125,0.8125 1.101563,0.53125 2.015625,1.214844 2.734375,2.046875 0.71875,0.824219 1.242188,1.730469 1.578125,2.71875 0.332031,0.992187 0.5,1.953125 0.5,2.890625 v 2.40625 z m 4.265625,-6.78125 c -1.148438,0 -2.078125,0.292969 -2.796875,0.875 -0.71875,0.585938 -1.1875,1.261719 -1.40625,2.03125 h 8.40625 c -0.148437,-0.84375 -0.601563,-1.535156 -1.359375,-2.078125 -0.75,-0.550781 -1.699219,-0.828125 -2.84375,-0.828125 z m 0,0"
           id="path34" />
      </g>
    </g>
    <g
       style="fill:#264653;fill-opacity:1"
       id="g38">
      <g
         transform="translate(176.50372,303.54309)"
         id="g37">
        <path
           style="stroke:none"
           d="M 7.328125,-9.484375 V 0 H 2.59375 v -25.140625 h 9.828125 c 1.300781,0 2.429687,0.210937 3.390625,0.625 0.957031,0.417969 1.75,0.96875 2.375,1.65625 0.632812,0.679687 1.113281,1.453125 1.4375,2.328125 0.320312,0.875 0.484375,1.765625 0.484375,2.671875 v 0.875 c 0,0.929687 -0.164063,1.84375 -0.484375,2.75 -0.324219,0.898437 -0.804688,1.699219 -1.4375,2.40625 -0.625,0.699219 -1.417969,1.265625 -2.375,1.703125 -0.960938,0.429688 -2.089844,0.640625 -3.390625,0.640625 z m 0,-4.53125 h 4.640625 c 1.050781,0 1.878906,-0.285156 2.484375,-0.859375 0.613281,-0.570312 0.921875,-1.3125 0.921875,-2.21875 v -0.4375 c 0,-0.90625 -0.308594,-1.644531 -0.921875,-2.21875 -0.605469,-0.582031 -1.433594,-0.875 -2.484375,-0.875 H 7.328125 Z m 0,0"
           id="path36" />
      </g>
    </g>
    <g
       style="fill:#264653;fill-opacity:1"
       id="g40">
      <g
         transform="translate(197.58025,303.54309)"
         id="g39">
        <path
           style="stroke:none"
           d="m 2.6875,-4.3125 h 6.25 V -20.828125 H 2.90625 v -4.3125 h 10.5625 V -4.3125 h 5.828125 V 0 H 2.6875 Z m 0,0"
           id="path38" />
      </g>
    </g>
    <g
       style="fill:#264653;fill-opacity:1"
       id="g42">
      <g
         transform="translate(218.65677,303.54309)"
         id="g41">
        <path
           style="stroke:none"
           d="M 14.328125,-2.59375 C 13.847656,-1.457031 13.175781,-0.65625 12.3125,-0.1875 11.457031,0.269531 10.453125,0.5 9.296875,0.5 8.222656,0.5 7.210938,0.296875 6.265625,-0.109375 5.316406,-0.515625 4.484375,-1.113281 3.765625,-1.90625 3.046875,-2.695312 2.476562,-3.65625 2.0625,-4.78125 1.644531,-5.90625 1.4375,-7.1875 1.4375,-8.625 V -9.203125 C 1.4375,-10.609375 1.640625,-11.875 2.046875,-13 2.453125,-14.125 3,-15.082031 3.6875,-15.875 c 0.695312,-0.789062 1.503906,-1.394531 2.421875,-1.8125 0.925781,-0.414062 1.921875,-0.625 2.984375,-0.625 1.257812,0 2.28125,0.214844 3.0625,0.640625 0.78125,0.429687 1.398438,1.101563 1.859375,2.015625 h 0.640625 v -2.15625 h 4.53125 v 12.421875 c 0,0.71875 0.320312,1.078125 0.96875,1.078125 h 0.671875 V 0 H 17.75 c -0.8125,0 -1.480469,-0.238281 -2,-0.71875 -0.511719,-0.476562 -0.765625,-1.101562 -0.765625,-1.875 z M 10.3125,-3.8125 c 1.3125,0 2.363281,-0.4375 3.15625,-1.3125 0.789062,-0.875 1.1875,-2.0625 1.1875,-3.5625 V -9.125 c 0,-1.507812 -0.398438,-2.703125 -1.1875,-3.578125 -0.792969,-0.875 -1.84375,-1.3125 -3.15625,-1.3125 -1.324219,0 -2.382812,0.4375 -3.171875,1.3125 -0.78125,0.875 -1.171875,2.070313 -1.171875,3.578125 v 0.4375 c 0,1.5 0.390625,2.6875 1.171875,3.5625 0.789063,0.875 1.847656,1.3125 3.171875,1.3125 z m 0,0"
           id="path40" />
      </g>
    </g>
    <g
       style="fill:#264653;fill-opacity:1"
       id="g44">
      <g
         transform="translate(239.7333,303.54309)"
         id="g43">
        <path
           style="stroke:none"
           d="m 7.328125,0 h -4.53125 v -17.8125 h 4.53125 v 2.65625 H 7.96875 c 0.40625,-1.007812 1.0625,-1.785156 1.96875,-2.328125 0.914062,-0.550781 1.984375,-0.828125 3.203125,-0.828125 0.863281,0 1.671875,0.136719 2.421875,0.40625 0.757812,0.273438 1.425781,0.699219 2,1.28125 0.570312,0.574219 1.019531,1.304688 1.34375,2.1875 0.320312,0.886719 0.484375,1.9375 0.484375,3.15625 V 0 H 14.875 v -10.125 c 0,-1.269531 -0.308594,-2.269531 -0.921875,-3 -0.605469,-0.726562 -1.484375,-1.09375 -2.640625,-1.09375 -1.34375,0 -2.34375,0.449219 -3,1.34375 -0.65625,0.898438 -0.984375,2.101562 -0.984375,3.609375 z m 0,0"
           id="path42" />
      </g>
    </g>
    <g
       style="fill:#264653;fill-opacity:1"
       id="g46">
      <g
         transform="translate(260.80982,303.54309)"
         id="g45">
        <path
           style="stroke:none"
           d="m 6.796875,-7.4375 c 0.019531,0.53125 0.140625,1.023438 0.359375,1.46875 0.226562,0.4375 0.539062,0.820312 0.9375,1.140625 0.394531,0.324219 0.847656,0.574219 1.359375,0.75 0.519531,0.179687 1.066406,0.265625 1.640625,0.265625 1.125,0 1.984375,-0.195312 2.578125,-0.59375 0.601563,-0.394531 1.039063,-0.863281 1.3125,-1.40625 l 3.875,2.15625 c -0.21875,0.449219 -0.523437,0.917969 -0.90625,1.40625 -0.375,0.492188 -0.871094,0.945312 -1.484375,1.359375 -0.617188,0.40625 -1.359375,0.742187 -2.234375,1 C 13.367188,0.367188 12.347656,0.5 11.171875,0.5 9.828125,0.5 8.601562,0.285156 7.5,-0.140625 c -1.09375,-0.4375 -2.042969,-1.0625 -2.84375,-1.875 -0.804688,-0.8125 -1.429688,-1.800781 -1.875,-2.96875 -0.4375,-1.175781 -0.65625,-2.507813 -0.65625,-4 v -0.21875 c 0,-1.363281 0.226562,-2.609375 0.6875,-3.734375 0.46875,-1.125 1.109375,-2.078125 1.921875,-2.859375 0.820313,-0.789063 1.773437,-1.40625 2.859375,-1.84375 1.09375,-0.445313 2.257812,-0.671875 3.5,-0.671875 1.539062,0 2.859375,0.273438 3.953125,0.8125 1.101563,0.53125 2.015625,1.214844 2.734375,2.046875 0.71875,0.824219 1.242188,1.730469 1.578125,2.71875 0.332031,0.992187 0.5,1.953125 0.5,2.890625 v 2.40625 z m 4.265625,-6.78125 c -1.148438,0 -2.078125,0.292969 -2.796875,0.875 -0.71875,0.585938 -1.1875,1.261719 -1.40625,2.03125 h 8.40625 c -0.148437,-0.84375 -0.601563,-1.535156 -1.359375,-2.078125 -0.75,-0.550781 -1.699219,-0.828125 -2.84375,-0.828125 z m 0,0"
           id="path44" />
      </g>
    </g>
  </g>
</svg>
